Coordinates
version=1
nRows=16
nColumns=22
inDegrees=yes

Units are S.I. units (second, meters, Newtons, ...)
If the header above contains a line with 'inDegrees', this indicates whether rotational values are in degrees (yes) or radians (no).

endheader
time	pelvis_tilt	pelvis_list	pelvis_rotation	pelvis_tx	pelvis_ty	pelvis_tz	hip_flexion_r	hip_adduction_r	hip_rotation_r	knee_angle_r	ankle_angle_r	subtalar_angle_r	hip_flexion_l	hip_adduction_l	hip_rotation_l	knee_angle_l	ankle_angle_l	subtalar_angle_l	lumbar_extension	lumbar_bending	lumbar_rotation
      3.71000000	      4.87785822	     -0.04393321	    -32.71471550	      0.90065426	      0.89347890	      0.53311582	      8.88383491	     -6.01360119	     -0.63305727	    -61.08015555	     13.67626635	    -12.03033377	     14.42598048	      3.42077389	     -8.60129758	    -23.70627940	      6.32117905	     -4.84712916	     -6.73764495	     -5.42336361	      6.16732818
      3.72000000	      4.83180907	     -0.20689651	    -32.70023137	      0.90570688	      0.89479200	      0.53500182	      9.69080883	     -5.98329058	     -1.01653412	    -60.44875415	     14.16217651	    -12.41074997	     13.80673617	      3.37523116	     -8.58751471	    -23.37668284	      6.54373485	     -4.93863437	     -6.95519318	     -5.23391132	      5.76407662
      3.73000000	      4.78057611	     -0.36472023	    -32.70751370	      0.91056218	      0.89603833	      0.53692485	     10.43832908	     -5.91447139	     -1.36817535	    -59.60700143	     14.55947266	    -12.70440188	     13.18167151	      3.31752153	     -8.59176926	    -23.00400098	      6.72184285	     -5.06237046	     -7.16327988	     -5.05658601	      5.38615178
      3.74000000	      4.71684926	     -0.49351453	    -32.69224033	      0.91535133	      0.89714461	      0.53880106	     11.13604662	     -5.89265830	     -1.82442630	    -58.58504097	     14.84767114	    -12.71008657	     12.59763946	      3.26657761	     -8.64862067	    -22.64249396	      6.92170409	     -5.12933703	     -7.33098542	     -4.89864515	      5.01680676
      3.75000000	      4.67525473	     -0.62393473	    -32.66218125	      0.92006499	      0.89821266	      0.54066883	     11.72031388	     -5.88662124	     -2.34613150	    -57.38088373	     15.03204158	    -12.59187708	     11.99107117	      3.22424429	     -8.69191256	    -22.26828141	      7.10913398	     -5.21525200	     -7.51255479	     -4.75346599	      4.61759166
      3.76000000	      4.64285034	     -0.75087281	    -32.61594391	      0.92472968	      0.89920141	      0.54252522	     12.20929132	     -5.91090858	     -2.96567147	    -56.02991238	     15.16958986	    -12.34340257	     11.38871664	      3.18528454	     -8.73042149	    -21.90486474	      7.30709147	     -5.29376138	     -7.68770766	     -4.61613753	      4.21443607
      3.77000000	      4.63355767	     -0.87881531	    -32.55714791	      0.92936699	      0.90013549	      0.54439570	     12.58419782	     -5.97511285	     -3.69662299	    -54.55286875	     15.27272520	    -11.92492614	     10.78431635	      3.14844937	     -8.79013314	    -21.57410150	      7.49737131	     -5.37587401	     -7.86718131	     -4.49390520	      3.82757809
      3.78000000	      4.59456952	     -1.01789297	    -32.46529222	      0.93395566	      0.90095899	      0.54627727	     12.87961516	     -6.00982528	     -4.50880342	    -52.96148781	     15.39633364	    -11.59338589	     10.22909546	      3.08570836	     -8.76517288	    -21.28697409	      7.73983824	     -5.40953727	     -8.00504777	     -4.34229756	      3.40824085
      3.79000000	      4.56884843	     -1.17622066	    -32.35120786	      0.93850430	      0.90174272	      0.54818267	     13.05311212	     -6.03275632	     -5.38909436	    -51.27601581	     15.52579517	    -11.20811787	      9.67890440	      3.00547985	     -8.72852071	    -21.04462230	      7.99108933	     -5.44112953	     -8.14755259	     -4.18070810	      2.99828919
      3.80000000	      4.59377543	     -1.35546719	    -32.23499869	      0.94300784	      0.90253982	      0.55016539	     13.07882321	     -6.05964873	     -6.31835455	    -49.52626205	     15.62636706	    -10.50288558	      9.09131525	      2.92352887	     -8.70392417	    -20.84182355	      8.21620695	     -5.49489373	     -8.32757794	     -4.04063702	      2.64875132
      3.81000000	      4.56950791	     -1.55221851	    -32.08875366	      0.94740664	      0.90321284	      0.55217557	     13.05496491	     -5.99116903	     -7.21858806	    -47.72425296	     15.73438321	     -9.94917280	      8.58303005	      2.79306735	     -8.59754771	    -20.70594016	      8.49715865	     -5.52235537	     -8.45068916	     -3.85820577	      2.30511174
      3.82000000	      4.51425285	     -1.76321851	    -31.93151930	      0.95167946	      0.90378048	      0.55422299	     12.98639466	     -5.83278542	     -8.03899675	    -45.90104393	     15.80067967	     -9.46489582	      8.13953984	      2.62085932	     -8.46159569	    -20.63838618	      8.83392486	     -5.54212005	     -8.53507000	     -3.65051316	      2.01729330
      3.83000000	      4.49987269	     -1.95875577	    -31.80740282	      0.95582744	      0.90432110	      0.55638699	     12.84646356	     -5.63624173	     -8.67527953	    -44.09446126	     15.87146668	     -8.61151865	      7.67072430	      2.47084732	     -8.36881740	    -20.57089549	      9.12092396	     -5.58742244	     -8.62469169	     -3.49837766	      1.76838105
      3.84000000	      4.41347445	     -2.15465359	    -31.68107565	      0.95980399	      0.90468841	      0.55857608	     12.73727953	     -5.31312607	     -9.11133579	    -42.31415510	     15.89662194	     -8.14334806	      7.32414029	      2.26354774	     -8.26655092	    -20.58850983	      9.48771759	     -5.60946176	     -8.63149195	     -3.30840349	      1.57216866
      3.85000000	      4.39951172	     -2.31817578	    -31.59091276	      0.96368563	      0.90507928	      0.56082003	     12.55993149	     -5.00227100	     -9.32313447	    -40.60113775	     15.90681975	     -7.19272334	      6.89682568	      2.13682791	     -8.11866648	    -20.53536500	      9.76460868	     -5.66070817	     -8.66910613	     -3.20394151	      1.47970072
      3.86000000	      4.34021034	     -2.44911580	    -31.52515275	      0.96741389	      0.90529734	      0.56312370	     12.43602980	     -4.62363214	     -9.27594575	    -38.98107463	     15.93229726	     -6.40504142	      6.57577290	      1.98685824	     -8.06361995	    -20.55792629	     10.07645117	     -5.69661500	     -8.62477447	     -3.11224808	      1.41341036
